<?xml version="1.0" encoding="UTF-8"?>
<svg version="1.1" viewBox="0 0 512 512" xmlns="http://www.w3.org/2000/svg">
    <defs>
        <filter id="filter31" x="0" y="0" width="1.0624" height="1.0537" color-interpolation-filters="sRGB">
            <feFlood flood-color="rgb(0,0,0)" flood-opacity=".49804" in="SourceGraphic" result="flood"/>
            <feGaussianBlur in="SourceGraphic" result="blur" stdDeviation="0.000000"/>
            <feOffset dx="6.000000" dy="6.000000" in="blur" result="offset"/>
            <feComposite in="flood" in2="offset" operator="in" result="comp1"/>
            <feComposite in="SourceGraphic" in2="comp1" result="comp2"/>
        </filter>
    </defs>
    <g>
        <circle id="backgroundCircle" cx="256" cy="256" r="256" fill="#3d3a38" style="paint-order:stroke fill markers"/>
        <path id="dragon" transform="matrix(3.531 0 0 3.531 -10.607 -10.608)" d="m85.822 16.589c4.01 0.8256 6.9464 4.0609 9.8778 6.6734 1.7231 1.5356 3.7781 2.8983 5.6445 4.2627l-2.4695-3.8806 5.6445 5.2623 7.0556 3.91v0.70556l-1.0584 0.35278c0.95056 2.938 5.2526 6.5661 8.4667 6.35l-3.175 3.8806 1.0583-0.35278c-0.22813 1.8722-0.98511 3.559-2.8222 4.2333l0.70557-1.7639-2.8222 1.0583 1.4111-2.1167-3.175 0.70555 2.4695-2.1167c-0.82146-2.8334-2.7865-4.3505-5.6445-4.9389v0.35278l2.1167 1.7639-5.2917-2.5968-1.7639 0.83295c-1.1431-3.1271-6.1088-4.4316-9.1723-4.5861l-0.35277 4.2333c1.1732 0.52342 1.12 1.4918-0.01 2.2441-2.3536 1.567-6.1218 0.57602-5.2819-2.5968l-1.4111 3.5278c-3.168 0.65224-7.0313 2.1322-8.8195 4.9389l2.4695 0.35278-5.2917 6.35 5.2917-1.6267 7.0556-0.13719-1.7639 4.5861c1.1535-0.82159 1.6774-2.6278 2.9006-3.2632 1.4442-0.75018 3.7845 1.4363 4.8605 2.2049v0.35277l-3.175 3.175 3.8806-2.5478 2.4793 1.8423 5.6347 5.2917c-3.0935-0.74088-5.9152-2.2335-9.1723-2.3617-1.8501-0.0728-3.8105 0.77833-5.6445 0.51937-2.0555-0.29025-3.6469-1.8913-5.6445-2.3028-1.2653-0.26067-2.6007 0.0127-3.8806-0.1176-2.0889-0.21276-4.5444-1.0508-6.35-2.1167-0.9678-0.57127-1.9624-1.3581-2.7438-2.1657-3.3299-3.4412-2.0891-9.4696 1.0093-12.592 1.6265-1.6392 3.7561-2.8081 5.6151-4.155 1.6739-1.2128 2.9401-2.2834 4.9389-2.93l0.35278 1.7639h0.35278c0.0391-2.3264 1.2255-3.3967 2.8222-4.9389l-2.4597 1.1857-3.1848-3.3024c3.9318-1.0573 9.8018-1.4168 13.758-0.35278-1.3073-2.0259-3.5227-2.6779-5.6445-3.616-3.9302-1.7377-7.6161-3.4396-11.995-3.4396v-0.35278c5.7724 0 13.34 0.50316 17.962 4.4587 2.27 1.9424 3.2196 5.3237 5.6739 7.0066 4.2655 2.9249 9.7184 3.0358 14.111 5.5562 1.5281 0.87677 1.6618 2.3646 2.8222 3.4396-0.28183-5.1596-6.1253-5.1865-9.8778-6.5068-1.9818-0.6973-4.1397-1.7765-5.9973-2.7634-2.2873-1.2153-3.2764-3.8829-4.7233-5.8992-2.0151-2.8081-4.7394-5.2164-6.5656-8.1139l8.8195 6.7028c-3.0173-3.1775-5.6662-8.0599-10.231-9.1722l0.35278-0.35278m-13.053 5.9972-0.35277 0.35278 0.35277-0.35278m22.931 3.5278 0.70555 0.70556-0.70555-0.70556m1.0583 0.70556 0.35278 0.35278-0.35278-0.35278m-64.911 2.4694c2.4122 6.1731 3.1839 12.561 4.3706 19.05 0.22153 1.2114 0.46627 2.4169 1.0191 3.5278 0.36238 0.72813 1.2101 1.5931 0.97014 2.4694-0.64101 2.3413-3.6837 2.8222-5.6543 2.8222 0 0 0.55831-16.188-0.77814-24.08-0.0414-0.2445-0.24709-0.64727-0.49376-0.62173-1.8806 0.19472-0.482 5.6515-0.482 5.6515l1.0191 7.4083 0.0294 11.642c-1.6192-0.20412-4.0197-1.423-4.4587-3.175-0.21886-0.87343 0.41966-1.678 0.67616-2.4694 0.34891-1.0766 0.53243-2.3987 0.59776-3.5278 0.36253-6.2645-1.2069-13.145 2.4793-18.697h0.70555m69.145 0.70556v0.35278l6.35 4.9389v-0.35278l-1.4111-1.0583c1.6738 0.30172 2.0436 1.792 2.8222 3.175h0.35278c-0.0941-4.4773-4.3204-6.147-8.1139-7.0556m-21.167 4.5861c-0.78573 0.37306-1.9161 1.0134-2.8222 0.86235-1.476-0.24599-2.7266-1.9672-4.2334-2.4694-1.6413-0.54708-2.8045 0.01629-3.5278-1.9207l4.2334-0.12739 2.7438-0.45077 2.5381 2.3421 1.0681 1.7639m-48.331-2.8222m44.45 3.8806-4.9389 4.3411-2.1167 1.0877-3.8806-2.2539c0.82316-2.1383 4.9892-5.1503 7.4084-4.9095 1.3496 0.13434 2.4045 1.0832 3.5278 1.7345m37.395 0.35278-2.1167-2.1167 2.1167 2.1167m-44.803 5.6444c-1.4228 2.6875-3.6719 4.8901-4.8017 7.7611-0.61631 1.5662 0.0967 3.5668-0.63696 4.9389-1.6851 3.1513-4.3698 6.7224-4.057 10.583 0.18945 2.3384 2.041 3.3402 3.469 4.9389 2.1518 2.4088 3.4914 5.0161 6.3794 6.7028l-2.685-2.8222-3.3416-4.5861-2.9692-3.5278 1.1073-6.35 2.9496-3.8806 3.8806 7.4083-3.8806 3.175 3.5278-2.1167v1.4111h0.35278l0.70555-2.4694c1.165 0.23985 2.3167 0.77427 3.5278 0.67615 2.0753-0.16813 3.8406-1.1489 5.9973-1.0191 1.9674 0.1184 3.6477 1.5337 5.6445 1.3719 1.4562-0.11797 2.8279-0.8801 4.2334-1.2347 2.1227-0.53561 4.526-0.74386 6.7028-0.42137 12.782 1.8935 16.973 15.057 15.846 26.38-0.33791 3.3948-1.7977 6.5543-2.44 9.8778h0.35278c0.74323-3.1033 2.074-5.9921 2.685-9.1722 0.76942-4.0047 0.17929-8.7457-0.56838-12.7 3.7146 0.9677 4.7868 5.5173 5.4289 8.8195 1.2598 6.4791 0.94581 13.592-1.4797 19.756-0.93239 2.3694-2.1374 5.2566-4.302 6.7028l1.3817-5.9972 0.0588-4.2333-0.0294-7.4083h-0.35278l-0.35278 7.0556-3.175-1.0583c0.37398-6.8472-1.7582-13.711-7.7612-17.629-3.2942-2.1504-10.187-2.8339-11.289-7.0654l2.1167 1.0583c-1.8247-4.3867-3.6003-9.9045-8.8195-11.475-1.7082-0.51403-3.8748-0.15021-5.6445-0.16659-1.7627-0.0163-3.562-0.37851-5.2917-0.70556-0.14513 1.3284-2.6149 6.5127 0.70555 5.9286 0.41314-0.0727 1.0232-0.47397 1.4111-0.63696l-1.0583 2.1167c4.1692 1.0686 6.1164 5.3993 8.1139 8.8195l-6.7028-3.175 2.8418 3.175 2.0971 7.0556-6.7028-4.9389 1.4111 7.7611h-0.35278l-4.2236-3.91-2.4793-2.0873 1.7639 3.175-4.2627-3.9296-4.5567-2.6556-8.8195-6.8204 0.70555 4.2333-4.9389-1.7639-0.35277 4.5861-0.70556-0.70555h-0.35278l-1.4111 1.4111 1.0583-2.8222-2.8222 1.0583 2.0873-3.175 2.2833-3.1652 2.3323-2.832-5.3015 5.5268-1.9599 0.50957-1.5581 1.0191c0.68488-2.0124 1.8257-2.6064 3.8806-2.8222-1.7731-1.5571-3.1074-2.0587-5.2917-1.0583 0.56883-1.5299 1.679-1.9854 3.175-2.4694-1.0222-1.6043-2.0073-2.1088-3.8806-2.1167v-0.70556c2.8503 0 4.8698 0.59299 4.9389 3.8806 2.9128-0.049 4.7167-3.1436 7.7514-2.3812 1.5206 0.38203 1.6635 2.0633 2.8614 2.8418 2.1859 1.4206 6.966 2.9994 9.4956 2.3617v-0.35278c-4.5294-0.019-3.5244-4.6458-5.2623-7.7611-1.3269-2.3785-3.5193-4.1448-4.6155-6.7028l4.5861 3.175-2.3225-4.5861 0.70556-6.7028 0.78395-2.4694-1.2837-3.5278c3.1712 0.8261 4.425 4.1905 8.1139 3.8806v-0.35278c-0.70748-0.13674-1.4362-0.2627-2.1167-0.50957-0.47941-0.17393-1.0082-0.39645-1.4111-0.71536-3.5997-2.8492 2.0083-5.7708 2.5087-8.6528 0.13963-0.80422-0.51096-1.7175-0.74475-2.4694l7.4084 3.8806m51.153 1.4111h-0.35278v-3.8806l-1.7639 0.70556v-1.4111c0.61925 0.08846 1.5168 0.03912 2.0775 0.32338 1.7727 0.89876 0.52667 3.0152 0.0392 4.2627m-54.328 4.9389c0 1.5347-0.14843 3.1144 0.36258 4.5861 1.4323 4.125 6.0935 6.6421 10.221 7.3299 1.3964 0.23273 2.8348-0.0735 4.2334 0.1078 1.7456 0.22628 4.2682 1.3827 5.6445 2.44-3.0491 1.2683-5.0872-0.80473-8.1139-1.0289-2.0855-0.15448-3.9252 1.3373-5.9973 1.3229-1.3489-9e-3 -2.8207-0.82579-3.8806-1.5973-3.088-2.2478-5.675-10.191-2.4695-13.161m37.747 8.1139-3.5278 0.73496-3.5278 0.47036-2.8222-2.1852-3.8806-2.5478c1.0794-1.0794 2.7937-0.73989 4.2334-0.48996 3.6201 0.62848 6.4887 1.951 9.5251 4.0177m-78.67-2.4694 7.0556 4.5861 0.35278 5.2917h-0.35278l-5.0761-6.7028-1.9795-3.175m16.581 0-4.0864 5.3211-2.6164 5.615h-1.7639l0.26458-5.8894 3.2632-1.2543 4.9389-3.7924m29.281 1.4111 1.0583-0.70556-1.0583 0.70556m14.111 1.4111 0.35278 0.35278-0.35278-0.35278m32.103 19.403-4.2334-2.391-3.3906-1.6659-6.1344-7.9375-5.9973-5.9972c2.2752 0.01 4.0337 0.94672 5.9973 2.0285 4.4091 2.4291 8.1766 6.1064 10.926 10.319 1.0979 1.6819 2.5137 3.6507 2.832 5.6444m-82.198-9.525-0.70556 2.1167v0.35278l0.51937 2.8222 0.18619 4.9389h-2.1167l-0.35278-10.231h2.4695m15.17 5.2917 1.4111 1.0583-1.4111-1.0583m69.145 8.4667c-1.7047-0.89531-3.2685-2.0673-4.9389-3.0378-1.7732-1.0302-3.8446-1.8151-4.2334-4.0177 3.7422 0.91197 8.2093 3.1043 9.1723 7.0556m-45.509-3.175 0.35278 0.35279-0.35278-0.35279m19.05 2.8222c3.9494 2.2568 8.1455 2.8388 11.142 6.7028 6.2565 8.0681 3.4461 17.695-2.3911 25.047-6.2625 7.8874-16.905 14.479-27.095 15.493-4.0184 0.39999-7.4697-0.46701-11.289-1.3817 0.4461-2.3473 4.1055-0.90242 5.9972-1.4111v-0.35277l-7.0556-0.95055-5.9973-0.33317-4.2334-2.2441 5.9973-0.35278v-0.35278c-4.3787 0-7.7248-0.46164-11.642-2.4694v-0.35278l4.2334-0.35278v-0.35278c-2.9732-0.79949-9.1111-1.0508-9.8778-4.9389l4.5861-0.35278v-0.35278c-3.5522-0.1791-7.8851-1.8509-9.8778-4.9389 0.91707-0.33908 1.9739-0.34191 2.8222-0.88194 2.09-1.3304 4.572-5.082 7.4084-4.7135 1.8654 0.24238 3.6518 3.2858 4.9389 4.5371 3.1983 3.1094 6.5038 4.5861 10.936 4.5861 1.1439 0 3.2696 0.41561 3.9786-0.74476 1.0146-1.6608-0.92023-4.451-1.5091-5.958 2.2574 1.1234 3.6137 3.9074 3.8806 6.35 4.4164-0.4639 8.927-2.4437 12.7-4.7233 0.8881-0.53656 3.371-1.842 3.371-3.0378 0-1.1773-2.0292-2.2776-2.6654-3.175l4.8017 1.3425 1.4111-1.3425 3.1946-5.9972-1.9991-3.5278 2.8222 1.7639 1.0485-5.2917 0.36258-4.9389m-65.617 2.4694c5.996 1.9399 10.249 6.1139 14.111 10.936 1.3905 1.7361 3.2056 3.5026 3.8806 5.6444l-4.9389 2.9006-3.8806 2.0089-6.7028-4.5273-2.4695 0.67617c0.79097-1.0948 1.7863-1.6609 3.175-1.7541 1.3656-0.0917 3.2454 0.36686 4.0864-1.0779 1.0177-1.7485-2.3878-3.5968-3.2632-4.7135-0.97342-1.2417 0.32043-2.6972-0.0196-4.0961-0.53845-2.2153-3.9786-3.9716-3.9786-5.9972m23.283 13.053c4.7383 1.9908 7.1498 6.1612 7.4084 11.289l-3.5278-2.6458-3.175-0.17639v-0.35278l3.3514-0.82315-0.13719-2.7046-4.2726-4.2333 0.35277-0.35277m4.2334 1.4111c3.3444 1.4895 4.6503 4.6613 6.0855 7.7611 0.61693 1.3326 1.5504 2.5096 2.0285 3.8806h-4.2334l-1.5091-7.7611-2.3715-3.8805m55.386 10.231-3.5278-2.1167 1.4111-3.8806c2.7034 1.0564 3.0949 3.3213 2.1167 5.9972m-23.989-4.9389 3.6454 7.0556 1.6463 5.9972c0.36665-1.0514 0.14884-1.7244 0.0294-2.8222-0.37955-3.4886-1.8411-8.6542-5.3211-10.231m-28.575 5.9972c-1.864-0.22713-4.4829-1.418-5.2917-3.175 2.4392 0 4.388 0.70277 5.2917 3.175m49.036-2.4694c0.79846 0.71123 2.344 1.4548 2.7046 2.4988 0.58476 1.6927-1.1187 3.9237-1.9305 5.2623-2.7866 4.5946-7.6869 9.9645-13.121 11.289l3.0868-4.5861 1.1857-3.8806 4.302-5.2917 3.7728-5.2917m-11.995 14.111c-2.2436 5.6805-10.507 8.8194-16.228 8.8194 1.4454-2.2686 3.7041-2.5596 5.9973-3.616 3.3173-1.5281 6.7335-4.3072 10.231-5.2035z" fill="#fb9911" filter="url(#filter31)"/>
    </g>
</svg>
